%TF.GenerationSoftware,Flux,Pcbnew,9.0.6-9.0.6~ubuntu22.04.1*%
%TF.CreationDate,2025-12-12T06:51:13+00:00*%
%TF.ProjectId,input,696e7075-742e-46b6-9963-61645f706362,rev?*%
%TF.SameCoordinates,Original*%
%TF.FileFunction,Soldermask,Bot*%
%TF.FilePolarity,Negative*%
%FSLAX46Y46*%
G04 Gerber Fmt 4.6, Leading zero omitted, Abs format (unit mm)*
G04 Filename: macropad*
G04 Build it with Flux! Visit our site at: https://www.flux.ai (PCBNEW 9.0.6-9.0.6~ubuntu22.04.1) date 2025-12-12 06:51:13*
%MOMM*%
%LPD*%
G01*
G04 APERTURE LIST*
%ADD10C,0.000000*%
G04 APERTURE END LIST*
D10*
%TO.C,*%
G36*
X9212854Y70795129D02*
G01*
X9551971Y70599340D01*
X9828859Y70322453D01*
X10024649Y69983336D01*
X10125997Y69605100D01*
X10125998Y69213522D01*
X10024650Y68835286D01*
X9828861Y68496168D01*
X9551974Y68219280D01*
X9212857Y68023491D01*
X8834621Y67922142D01*
X5443043Y67922139D01*
X5064807Y68023486D01*
X4725689Y68219275D01*
X4448801Y68496163D01*
X4253012Y68835280D01*
X4151663Y69213515D01*
X4151663Y69605094D01*
X4253011Y69983330D01*
X4448799Y70322447D01*
X4725687Y70599335D01*
X5064804Y70795125D01*
X5443040Y70896473D01*
X5834618Y70896474D01*
X8834618Y70896477D01*
X9212854Y70795129D01*
G37*
G36*
X-45451Y64471501D02*
G01*
X141064Y64363817D01*
X293352Y64211529D01*
X401037Y64025015D01*
X456778Y63816985D01*
X456778Y63601617D01*
X401037Y63393587D01*
X293353Y63207073D01*
X141065Y63054784D01*
X-45449Y62947100D01*
X-253479Y62891358D01*
X-468847Y62891358D01*
X-676877Y62947099D01*
X-863391Y63054783D01*
X-1015680Y63207071D01*
X-1123364Y63393586D01*
X-1179106Y63601615D01*
X-1179106Y63816983D01*
X-1123365Y64025013D01*
X-1015681Y64211528D01*
X-863393Y64363816D01*
X-676878Y64471500D01*
X-468849Y64527242D01*
X-253481Y64527242D01*
X-45451Y64471501D01*
G37*
G36*
X14963835Y65384316D02*
G01*
X13313835Y65384314D01*
X13313833Y67034314D01*
X14963833Y67034316D01*
X14963835Y65384316D01*
G37*
G36*
X14454552Y61971516D02*
G01*
X14641066Y61863832D01*
X14793355Y61711544D01*
X14901039Y61525030D01*
X14956781Y61317000D01*
X14956781Y61101632D01*
X14901040Y60893602D01*
X14793356Y60707087D01*
X14641068Y60554799D01*
X14454553Y60447115D01*
X14246524Y60391373D01*
X14031155Y60391373D01*
X13823126Y60447114D01*
X13636611Y60554798D01*
X13484323Y60707086D01*
X13376638Y60893600D01*
X13320897Y61101630D01*
X13320897Y61316998D01*
X13376638Y61525028D01*
X13484322Y61711542D01*
X13636610Y61863831D01*
X13823124Y61971515D01*
X14031154Y62027257D01*
X14246522Y62027257D01*
X14454552Y61971516D01*
G37*
G36*
X9212866Y59395129D02*
G01*
X9551983Y59199340D01*
X9828871Y58922453D01*
X10024661Y58583336D01*
X10126009Y58205100D01*
X10126010Y57813522D01*
X10024662Y57435286D01*
X9828873Y57096168D01*
X9551985Y56819280D01*
X9212869Y56623491D01*
X8834633Y56522142D01*
X5443054Y56522139D01*
X5064818Y56623486D01*
X4725701Y56819275D01*
X4448813Y57096163D01*
X4253023Y57435280D01*
X4151675Y57813515D01*
X4151675Y58205094D01*
X4253022Y58583330D01*
X4448811Y58922447D01*
X4725699Y59199335D01*
X5064815Y59395125D01*
X5443051Y59496473D01*
X5834630Y59496474D01*
X8834630Y59496477D01*
X9212866Y59395129D01*
G37*
G36*
X-45448Y61971501D02*
G01*
X141066Y61863817D01*
X293355Y61711529D01*
X401039Y61525015D01*
X456781Y61316985D01*
X456781Y61101617D01*
X401040Y60893587D01*
X293356Y60707073D01*
X141068Y60554784D01*
X-45447Y60447100D01*
X-253476Y60391358D01*
X-468845Y60391358D01*
X-676874Y60447099D01*
X-863389Y60554783D01*
X-1015677Y60707071D01*
X-1123362Y60893586D01*
X-1179103Y61101615D01*
X-1179103Y61316983D01*
X-1123362Y61525013D01*
X-1015678Y61711528D01*
X-863390Y61863816D01*
X-676876Y61971500D01*
X-468846Y62027242D01*
X-253478Y62027242D01*
X-45448Y61971501D01*
G37*
G36*
X-45453Y66971501D02*
G01*
X141061Y66863817D01*
X293350Y66711529D01*
X401034Y66525015D01*
X456776Y66316985D01*
X456776Y66101617D01*
X401035Y65893587D01*
X293351Y65707073D01*
X141063Y65554784D01*
X-45452Y65447100D01*
X-253481Y65391358D01*
X-468850Y65391358D01*
X-676879Y65447099D01*
X-863394Y65554783D01*
X-1015682Y65707071D01*
X-1123367Y65893586D01*
X-1179108Y66101615D01*
X-1179108Y66316983D01*
X-1123367Y66525013D01*
X-1015683Y66711528D01*
X-863395Y66863816D01*
X-676881Y66971500D01*
X-468851Y67027242D01*
X-253483Y67027242D01*
X-45453Y66971501D01*
G37*
G36*
X-31660442Y-8444063D02*
G01*
X-31411756Y-8587640D01*
X-31208704Y-8790691D01*
X-31065124Y-9039376D01*
X-30990801Y-9316748D01*
X-30990799Y-9603906D01*
X-31065120Y-9881279D01*
X-31208697Y-10129966D01*
X-31411748Y-10333018D01*
X-31660433Y-10476598D01*
X-31937805Y-10550921D01*
X-32224963Y-10550922D01*
X-32502336Y-10476602D01*
X-32751023Y-10333024D01*
X-32954075Y-10129974D01*
X-33097655Y-9881289D01*
X-33171978Y-9603916D01*
X-33171979Y-9316758D01*
X-33097659Y-9039385D01*
X-32954081Y-8790699D01*
X-32751031Y-8587647D01*
X-32502346Y-8444067D01*
X-32224973Y-8369743D01*
X-31937815Y-8369742D01*
X-31660442Y-8444063D01*
G37*
G36*
X-38010430Y-10984093D02*
G01*
X-37761744Y-11127670D01*
X-37558692Y-11330720D01*
X-37415112Y-11579405D01*
X-37340789Y-11856778D01*
X-37340787Y-12143936D01*
X-37415108Y-12421309D01*
X-37558685Y-12669995D01*
X-37761736Y-12873048D01*
X-38010421Y-13016627D01*
X-38287793Y-13090951D01*
X-38574951Y-13090952D01*
X-38852324Y-13016631D01*
X-39101011Y-12873054D01*
X-39304063Y-12670004D01*
X-39447643Y-12421319D01*
X-39521966Y-12143946D01*
X-39521967Y-11856788D01*
X-39447647Y-11579415D01*
X-39304069Y-11330728D01*
X-39101019Y-11127676D01*
X-38852334Y-10984096D01*
X-38574961Y-10909773D01*
X-38287804Y-10909772D01*
X-38010430Y-10984093D01*
G37*
G36*
X-9620142Y-8404040D02*
G01*
X-9371456Y-8547618D01*
X-9168404Y-8750668D01*
X-9024824Y-8999353D01*
X-8950501Y-9276726D01*
X-8950499Y-9563883D01*
X-9024820Y-9841257D01*
X-9168397Y-10089943D01*
X-9371448Y-10292995D01*
X-9620133Y-10436575D01*
X-9897505Y-10510898D01*
X-10184663Y-10510900D01*
X-10462036Y-10436579D01*
X-10710723Y-10293002D01*
X-10913775Y-10089951D01*
X-11057355Y-9841266D01*
X-11131678Y-9563894D01*
X-11131679Y-9276736D01*
X-11057359Y-8999363D01*
X-10913781Y-8750676D01*
X-10710731Y-8547624D01*
X-10462046Y-8404044D01*
X-10184673Y-8329721D01*
X-9897516Y-8329720D01*
X-9620142Y-8404040D01*
G37*
G36*
X-15970130Y-10944070D02*
G01*
X-15721444Y-11087648D01*
X-15518392Y-11290698D01*
X-15374812Y-11539383D01*
X-15300489Y-11816756D01*
X-15300487Y-12103913D01*
X-15374808Y-12381287D01*
X-15518385Y-12629973D01*
X-15721436Y-12833025D01*
X-15970121Y-12976605D01*
X-16247493Y-13050928D01*
X-16534651Y-13050930D01*
X-16812024Y-12976609D01*
X-17060711Y-12833031D01*
X-17263763Y-12629981D01*
X-17407343Y-12381296D01*
X-17481666Y-12103923D01*
X-17481667Y-11816766D01*
X-17407347Y-11539392D01*
X-17263769Y-11290706D01*
X-17060719Y-11087654D01*
X-16812034Y-10944074D01*
X-16534661Y-10869751D01*
X-16247504Y-10869749D01*
X-15970130Y-10944070D01*
G37*
G36*
X-31660515Y-35355063D02*
G01*
X-31411828Y-35498640D01*
X-31208776Y-35701691D01*
X-31065196Y-35950376D01*
X-30990873Y-36227748D01*
X-30990872Y-36514906D01*
X-31065192Y-36792279D01*
X-31208770Y-37040966D01*
X-31411820Y-37244018D01*
X-31660505Y-37387598D01*
X-31937878Y-37461921D01*
X-32225035Y-37461922D01*
X-32502409Y-37387602D01*
X-32751095Y-37244024D01*
X-32954147Y-37040974D01*
X-33097727Y-36792289D01*
X-33172050Y-36514916D01*
X-33172052Y-36227758D01*
X-33097731Y-35950385D01*
X-32954154Y-35701699D01*
X-32751103Y-35498647D01*
X-32502418Y-35355067D01*
X-32225046Y-35280743D01*
X-31937888Y-35280742D01*
X-31660515Y-35355063D01*
G37*
G36*
X-38010503Y-37895093D02*
G01*
X-37761816Y-38038670D01*
X-37558764Y-38241720D01*
X-37415184Y-38490405D01*
X-37340861Y-38767778D01*
X-37340860Y-39054936D01*
X-37415180Y-39332309D01*
X-37558758Y-39580995D01*
X-37761808Y-39784048D01*
X-38010493Y-39927627D01*
X-38287866Y-40001951D01*
X-38575024Y-40001952D01*
X-38852397Y-39927631D01*
X-39101083Y-39784054D01*
X-39304135Y-39581004D01*
X-39447715Y-39332319D01*
X-39522038Y-39054946D01*
X-39522040Y-38767788D01*
X-39447719Y-38490415D01*
X-39304142Y-38241728D01*
X-39101091Y-38038676D01*
X-38852406Y-37895096D01*
X-38575034Y-37820773D01*
X-38287876Y-37820772D01*
X-38010503Y-37895093D01*
G37*
G36*
X14945485Y-35355015D02*
G01*
X15194172Y-35498593D01*
X15397224Y-35701643D01*
X15540804Y-35950328D01*
X15615127Y-36227701D01*
X15615128Y-36514858D01*
X15540808Y-36792232D01*
X15397230Y-37040918D01*
X15194180Y-37243970D01*
X14945495Y-37387550D01*
X14668122Y-37461873D01*
X14380965Y-37461875D01*
X14103591Y-37387554D01*
X13854905Y-37243976D01*
X13651853Y-37040926D01*
X13508273Y-36792241D01*
X13433950Y-36514869D01*
X13433948Y-36227711D01*
X13508269Y-35950338D01*
X13651846Y-35701651D01*
X13854897Y-35498599D01*
X14103582Y-35355019D01*
X14380954Y-35280696D01*
X14668112Y-35280695D01*
X14945485Y-35355015D01*
G37*
G36*
X8595497Y-37895045D02*
G01*
X8844184Y-38038623D01*
X9047236Y-38241673D01*
X9190816Y-38490358D01*
X9265139Y-38767731D01*
X9265140Y-39054888D01*
X9190820Y-39332261D01*
X9047242Y-39580948D01*
X8844192Y-39784000D01*
X8595507Y-39927580D01*
X8318134Y-40001903D01*
X8030976Y-40001904D01*
X7753603Y-39927584D01*
X7504917Y-39784006D01*
X7301865Y-39580956D01*
X7158285Y-39332271D01*
X7083962Y-39054898D01*
X7083960Y-38767741D01*
X7158281Y-38490367D01*
X7301858Y-38241681D01*
X7504909Y-38038629D01*
X7753594Y-37895049D01*
X8030966Y-37820726D01*
X8318124Y-37820724D01*
X8595497Y-37895045D01*
G37*
G36*
X-30664111Y62225537D02*
G01*
X-30415425Y62081958D01*
X-30212373Y61878907D01*
X-30068794Y61630222D01*
X-29994472Y61352849D01*
X-29994472Y61065691D01*
X-30068793Y60788318D01*
X-30212372Y60539632D01*
X-30415423Y60336581D01*
X-30664108Y60193002D01*
X-30941481Y60118680D01*
X-31228639Y60118679D01*
X-31506012Y60193001D01*
X-31754698Y60336579D01*
X-31957749Y60539630D01*
X-32101328Y60788316D01*
X-32175650Y61065689D01*
X-32175651Y61352847D01*
X-32101329Y61630220D01*
X-31957751Y61878906D01*
X-31754700Y62081957D01*
X-31506014Y62225536D01*
X-31228641Y62299858D01*
X-30941484Y62299858D01*
X-30664111Y62225537D01*
G37*
G36*
X-33204117Y68575534D02*
G01*
X-32955431Y68431956D01*
X-32752380Y68228905D01*
X-32608801Y67980219D01*
X-32534479Y67702846D01*
X-32534478Y67415689D01*
X-32608800Y67138316D01*
X-32752378Y66889630D01*
X-32955429Y66686578D01*
X-33204115Y66542999D01*
X-33481488Y66468677D01*
X-33768645Y66468677D01*
X-34046018Y66542998D01*
X-34294704Y66686577D01*
X-34497756Y66889628D01*
X-34641335Y67138313D01*
X-34715657Y67415686D01*
X-34715657Y67702844D01*
X-34641336Y67980217D01*
X-34497757Y68228903D01*
X-34294706Y68431954D01*
X-34046021Y68575533D01*
X-33768648Y68649855D01*
X-33481490Y68649856D01*
X-33204117Y68575534D01*
G37*
G36*
X14945458Y-8444015D02*
G01*
X15194144Y-8587593D01*
X15397196Y-8790643D01*
X15540776Y-9039328D01*
X15615099Y-9316701D01*
X15615101Y-9603858D01*
X15540780Y-9881232D01*
X15397203Y-10129918D01*
X15194152Y-10332970D01*
X14945467Y-10476550D01*
X14668095Y-10550873D01*
X14380937Y-10550875D01*
X14103564Y-10476554D01*
X13854877Y-10332976D01*
X13651825Y-10129926D01*
X13508245Y-9881241D01*
X13433922Y-9603869D01*
X13433921Y-9316711D01*
X13508241Y-9039338D01*
X13651819Y-8790651D01*
X13854869Y-8587599D01*
X14103554Y-8444019D01*
X14380927Y-8369696D01*
X14668085Y-8369695D01*
X14945458Y-8444015D01*
G37*
G36*
X8595470Y-10984045D02*
G01*
X8844156Y-11127623D01*
X9047208Y-11330673D01*
X9190788Y-11579358D01*
X9265111Y-11856731D01*
X9265113Y-12143888D01*
X9190792Y-12421261D01*
X9047215Y-12669948D01*
X8844164Y-12873000D01*
X8595479Y-13016580D01*
X8318107Y-13090903D01*
X8030949Y-13090904D01*
X7753576Y-13016584D01*
X7504889Y-12873006D01*
X7301837Y-12669956D01*
X7158257Y-12421271D01*
X7083934Y-12143898D01*
X7083933Y-11856741D01*
X7158253Y-11579367D01*
X7301831Y-11330681D01*
X7504881Y-11127629D01*
X7753566Y-10984049D01*
X8030939Y-10909726D01*
X8318096Y-10909724D01*
X8595470Y-10984045D01*
G37*
G36*
X38057030Y18416508D02*
G01*
X38305717Y18272931D01*
X38508769Y18069881D01*
X38652349Y17821195D01*
X38726672Y17543823D01*
X38726673Y17256665D01*
X38652353Y16979292D01*
X38508775Y16730605D01*
X38305725Y16527553D01*
X38057040Y16383973D01*
X37779667Y16309650D01*
X37492510Y16309649D01*
X37215136Y16383969D01*
X36966450Y16527547D01*
X36763398Y16730597D01*
X36619818Y16979282D01*
X36545495Y17256655D01*
X36545493Y17543813D01*
X36619814Y17821186D01*
X36763392Y18069872D01*
X36966442Y18272924D01*
X37215127Y18416504D01*
X37492499Y18490828D01*
X37779657Y18490829D01*
X38057030Y18416508D01*
G37*
G36*
X31707042Y15876479D02*
G01*
X31955729Y15732901D01*
X32158781Y15529851D01*
X32302361Y15281166D01*
X32376684Y15003793D01*
X32376685Y14716635D01*
X32302365Y14439262D01*
X32158787Y14190576D01*
X31955737Y13987524D01*
X31707052Y13843944D01*
X31429679Y13769620D01*
X31142522Y13769619D01*
X30865148Y13843940D01*
X30616462Y13987517D01*
X30413410Y14190567D01*
X30269830Y14439253D01*
X30195507Y14716625D01*
X30195505Y15003783D01*
X30269826Y15281156D01*
X30413404Y15529843D01*
X30616454Y15732895D01*
X30865139Y15876475D01*
X31142511Y15950798D01*
X31429669Y15950799D01*
X31707042Y15876479D01*
G37*
G36*
X38932286Y-35760491D02*
G01*
X39180972Y-35904068D01*
X39384024Y-36107119D01*
X39527604Y-36355804D01*
X39601927Y-36633176D01*
X39601929Y-36920334D01*
X39527608Y-37197707D01*
X39384030Y-37446394D01*
X39180980Y-37649446D01*
X38932295Y-37793026D01*
X38654923Y-37867349D01*
X38367765Y-37867350D01*
X38090392Y-37793030D01*
X37841705Y-37649452D01*
X37638653Y-37446402D01*
X37495073Y-37197717D01*
X37420750Y-36920344D01*
X37420749Y-36633186D01*
X37495069Y-36355813D01*
X37638647Y-36107127D01*
X37841697Y-35904075D01*
X38090382Y-35760495D01*
X38367755Y-35686172D01*
X38654912Y-35686170D01*
X38932286Y-35760491D01*
G37*
G36*
X32582298Y-38300521D02*
G01*
X32830984Y-38444098D01*
X33034036Y-38647148D01*
X33177616Y-38895833D01*
X33251939Y-39173206D01*
X33251941Y-39460364D01*
X33177620Y-39737737D01*
X33034042Y-39986423D01*
X32830992Y-40189476D01*
X32582307Y-40333056D01*
X32304935Y-40407379D01*
X32017777Y-40407380D01*
X31740404Y-40333059D01*
X31491717Y-40189482D01*
X31288665Y-39986432D01*
X31145085Y-39737747D01*
X31070762Y-39460374D01*
X31070761Y-39173216D01*
X31145081Y-38895843D01*
X31288659Y-38647157D01*
X31491709Y-38444104D01*
X31740394Y-38300524D01*
X32017767Y-38226201D01*
X32304924Y-38226200D01*
X32582298Y-38300521D01*
G37*
G36*
X38932258Y-8444091D02*
G01*
X39180944Y-8587668D01*
X39383996Y-8790719D01*
X39527576Y-9039404D01*
X39601899Y-9316776D01*
X39601901Y-9603934D01*
X39527580Y-9881307D01*
X39384003Y-10129994D01*
X39180952Y-10333046D01*
X38932267Y-10476626D01*
X38654895Y-10550949D01*
X38367737Y-10550950D01*
X38090364Y-10476630D01*
X37841677Y-10333052D01*
X37638625Y-10130002D01*
X37495045Y-9881317D01*
X37420722Y-9603944D01*
X37420721Y-9316786D01*
X37495041Y-9039413D01*
X37638619Y-8790727D01*
X37841669Y-8587675D01*
X38090354Y-8444095D01*
X38367727Y-8369772D01*
X38654885Y-8369770D01*
X38932258Y-8444091D01*
G37*
G36*
X32582270Y-10984121D02*
G01*
X32830956Y-11127698D01*
X33034008Y-11330748D01*
X33177588Y-11579433D01*
X33251911Y-11856806D01*
X33251913Y-12143964D01*
X33177592Y-12421337D01*
X33034015Y-12670023D01*
X32830964Y-12873076D01*
X32582279Y-13016656D01*
X32304907Y-13090979D01*
X32017749Y-13090980D01*
X31740376Y-13016659D01*
X31491689Y-12873082D01*
X31288637Y-12670032D01*
X31145057Y-12421347D01*
X31070734Y-12143974D01*
X31070733Y-11856816D01*
X31145053Y-11579443D01*
X31288631Y-11330757D01*
X31491681Y-11127704D01*
X31740366Y-10984124D01*
X32017739Y-10909801D01*
X32304896Y-10909800D01*
X32582270Y-10984121D01*
G37*
G36*
X-40251341Y38061458D02*
G01*
X-40059174Y37950512D01*
X-39902270Y37793610D01*
X-39791322Y37601444D01*
X-39733891Y37387110D01*
X-39733890Y37165216D01*
X-39791319Y36950882D01*
X-39902265Y36758715D01*
X-40059168Y36601811D01*
X-40251334Y36490863D01*
X-40465667Y36433432D01*
X-40687561Y36433431D01*
X-40901895Y36490860D01*
X-41094062Y36601806D01*
X-41250966Y36758709D01*
X-41361914Y36950875D01*
X-41419346Y37165208D01*
X-41419347Y37387102D01*
X-41361917Y37601436D01*
X-41250971Y37793603D01*
X-41094069Y37950507D01*
X-40901903Y38061455D01*
X-40687569Y38118887D01*
X-40465675Y38118888D01*
X-40251341Y38061458D01*
G37*
G36*
X-39726638Y41506163D02*
G01*
X-41426638Y41506155D01*
X-41426646Y43206155D01*
X-39726646Y43206163D01*
X-39726638Y41506163D01*
G37*
G36*
X-40251353Y40601458D02*
G01*
X-40059186Y40490512D01*
X-39902282Y40333610D01*
X-39791334Y40141444D01*
X-39733902Y39927110D01*
X-39733901Y39705216D01*
X-39791331Y39490882D01*
X-39902277Y39298715D01*
X-40059180Y39141811D01*
X-40251345Y39030863D01*
X-40465679Y38973432D01*
X-40687573Y38973431D01*
X-40901907Y39030860D01*
X-41094074Y39141806D01*
X-41250978Y39298709D01*
X-41361926Y39490875D01*
X-41419358Y39705208D01*
X-41419359Y39927102D01*
X-41361929Y40141436D01*
X-41250983Y40333603D01*
X-41094080Y40490507D01*
X-40901915Y40601455D01*
X-40687581Y40658887D01*
X-40465687Y40658888D01*
X-40251353Y40601458D01*
G37*
G36*
X-40251329Y35521458D02*
G01*
X-40059162Y35410512D01*
X-39902258Y35253610D01*
X-39791310Y35061444D01*
X-39733879Y34847110D01*
X-39733878Y34625216D01*
X-39791307Y34410882D01*
X-39902253Y34218715D01*
X-40059156Y34061811D01*
X-40251322Y33950863D01*
X-40465655Y33893432D01*
X-40687550Y33893431D01*
X-40901883Y33950860D01*
X-41094050Y34061806D01*
X-41250954Y34218709D01*
X-41361902Y34410875D01*
X-41419334Y34625208D01*
X-41419335Y34847102D01*
X-41361905Y35061436D01*
X-41250959Y35253603D01*
X-41094057Y35410507D01*
X-40901891Y35521455D01*
X-40687557Y35578887D01*
X-40465663Y35578888D01*
X-40251329Y35521458D01*
G37*
G36*
X-9620114Y-35760540D02*
G01*
X-9371428Y-35904118D01*
X-9168376Y-36107168D01*
X-9024796Y-36355853D01*
X-8950473Y-36633226D01*
X-8950471Y-36920383D01*
X-9024792Y-37197757D01*
X-9168370Y-37446443D01*
X-9371420Y-37649495D01*
X-9620105Y-37793075D01*
X-9897477Y-37867398D01*
X-10184635Y-37867400D01*
X-10462008Y-37793079D01*
X-10710695Y-37649502D01*
X-10913747Y-37446451D01*
X-11057327Y-37197766D01*
X-11131650Y-36920394D01*
X-11131651Y-36633236D01*
X-11057331Y-36355863D01*
X-10913753Y-36107176D01*
X-10710703Y-35904124D01*
X-10462018Y-35760544D01*
X-10184645Y-35686221D01*
X-9897488Y-35686220D01*
X-9620114Y-35760540D01*
G37*
G36*
X-15970102Y-38300570D02*
G01*
X-15721416Y-38444148D01*
X-15518364Y-38647198D01*
X-15374784Y-38895883D01*
X-15300461Y-39173256D01*
X-15300459Y-39460413D01*
X-15374780Y-39737787D01*
X-15518358Y-39986473D01*
X-15721408Y-40189525D01*
X-15970093Y-40333105D01*
X-16247465Y-40407428D01*
X-16534623Y-40407430D01*
X-16811996Y-40333109D01*
X-17060683Y-40189531D01*
X-17263735Y-39986481D01*
X-17407315Y-39737796D01*
X-17481638Y-39460423D01*
X-17481639Y-39173266D01*
X-17407319Y-38895892D01*
X-17263741Y-38647206D01*
X-17060691Y-38444154D01*
X-16812006Y-38300574D01*
X-16534633Y-38226251D01*
X-16247476Y-38226249D01*
X-15970102Y-38300570D01*
G37*
G36*
X13013630Y18416583D02*
G01*
X13262317Y18273005D01*
X13465369Y18069955D01*
X13608949Y17821270D01*
X13683272Y17543897D01*
X13683273Y17256740D01*
X13608953Y16979366D01*
X13465375Y16730680D01*
X13262325Y16527628D01*
X13013640Y16384048D01*
X12736267Y16309725D01*
X12449110Y16309723D01*
X12171736Y16384044D01*
X11923050Y16527622D01*
X11719998Y16730672D01*
X11576418Y16979357D01*
X11502095Y17256729D01*
X11502093Y17543887D01*
X11576414Y17821260D01*
X11719992Y18069947D01*
X11923042Y18272999D01*
X12171727Y18416579D01*
X12449099Y18490902D01*
X12736257Y18490903D01*
X13013630Y18416583D01*
G37*
G36*
X6663642Y15876553D02*
G01*
X6912329Y15732975D01*
X7115381Y15529925D01*
X7258961Y15281240D01*
X7333284Y15003868D01*
X7333285Y14716710D01*
X7258965Y14439337D01*
X7115387Y14190650D01*
X6912337Y13987598D01*
X6663652Y13844018D01*
X6386279Y13769695D01*
X6099122Y13769694D01*
X5821748Y13844014D01*
X5573062Y13987592D01*
X5370010Y14190642D01*
X5226430Y14439327D01*
X5152107Y14716700D01*
X5152105Y15003857D01*
X5226426Y15281231D01*
X5370004Y15529917D01*
X5573054Y15732969D01*
X5821739Y15876549D01*
X6099111Y15950872D01*
X6386269Y15950874D01*
X6663642Y15876553D01*
G37*
G36*
X-10667470Y18416659D02*
G01*
X-10418783Y18273081D01*
X-10215731Y18070031D01*
X-10072151Y17821346D01*
X-9997828Y17543973D01*
X-9997827Y17256816D01*
X-10072147Y16979442D01*
X-10215725Y16730756D01*
X-10418775Y16527704D01*
X-10667460Y16384124D01*
X-10944833Y16309801D01*
X-11231990Y16309799D01*
X-11509364Y16384120D01*
X-11758050Y16527697D01*
X-11961102Y16730748D01*
X-12104682Y16979433D01*
X-12179005Y17256805D01*
X-12179007Y17543963D01*
X-12104686Y17821336D01*
X-11961108Y18070023D01*
X-11758058Y18273075D01*
X-11509373Y18416655D01*
X-11232001Y18490978D01*
X-10944843Y18490979D01*
X-10667470Y18416659D01*
G37*
G36*
X-17017458Y15876629D02*
G01*
X-16768771Y15733051D01*
X-16565719Y15530001D01*
X-16422139Y15281316D01*
X-16347816Y15003943D01*
X-16347815Y14716786D01*
X-16422135Y14439412D01*
X-16565713Y14190726D01*
X-16768763Y13987674D01*
X-17017448Y13844094D01*
X-17294821Y13769771D01*
X-17581978Y13769769D01*
X-17859352Y13844090D01*
X-18108038Y13987668D01*
X-18311090Y14190718D01*
X-18454670Y14439403D01*
X-18528993Y14716776D01*
X-18528995Y15003933D01*
X-18454674Y15281306D01*
X-18311096Y15529993D01*
X-18108046Y15733045D01*
X-17859361Y15876625D01*
X-17581989Y15950948D01*
X-17294831Y15950949D01*
X-17017458Y15876629D01*
G37*
G36*
X-32535670Y18416736D02*
G01*
X-32286983Y18273159D01*
X-32083931Y18070109D01*
X-31940351Y17821423D01*
X-31866028Y17544051D01*
X-31866027Y17256893D01*
X-31940347Y16979520D01*
X-32083925Y16730833D01*
X-32286975Y16527781D01*
X-32535660Y16384201D01*
X-32813033Y16309878D01*
X-33100190Y16309877D01*
X-33377564Y16384197D01*
X-33626250Y16527775D01*
X-33829302Y16730825D01*
X-33972882Y16979510D01*
X-34047205Y17256883D01*
X-34047207Y17544041D01*
X-33972886Y17821414D01*
X-33829308Y18070100D01*
X-33626258Y18273152D01*
X-33377573Y18416732D01*
X-33100201Y18491056D01*
X-32813043Y18491057D01*
X-32535670Y18416736D01*
G37*
G36*
X-38885658Y15876707D02*
G01*
X-38636971Y15733129D01*
X-38433919Y15530079D01*
X-38290339Y15281394D01*
X-38216016Y15004021D01*
X-38216015Y14716863D01*
X-38290335Y14439490D01*
X-38433913Y14190804D01*
X-38636963Y13987752D01*
X-38885648Y13844172D01*
X-39163021Y13769848D01*
X-39450178Y13769847D01*
X-39727552Y13844168D01*
X-39976238Y13987745D01*
X-40179290Y14190795D01*
X-40322870Y14439481D01*
X-40397193Y14716853D01*
X-40397195Y15004011D01*
X-40322874Y15281384D01*
X-40179296Y15530071D01*
X-39976246Y15733123D01*
X-39727561Y15876703D01*
X-39450189Y15951026D01*
X-39163031Y15951027D01*
X-38885658Y15876707D01*
G37*
G36*
X-11848646Y70795108D02*
G01*
X-11509529Y70599319D01*
X-11232641Y70322431D01*
X-11036851Y69983314D01*
X-10935503Y69605079D01*
X-10935502Y69213500D01*
X-11036850Y68835264D01*
X-11232639Y68496147D01*
X-11509526Y68219259D01*
X-11848643Y68023469D01*
X-12226879Y67922121D01*
X-15618457Y67922117D01*
X-15996693Y68023465D01*
X-16335811Y68219254D01*
X-16612699Y68496141D01*
X-16808488Y68835258D01*
X-16909837Y69213494D01*
X-16909837Y69605073D01*
X-16808489Y69983309D01*
X-16612701Y70322426D01*
X-16335813Y70599314D01*
X-15996696Y70795104D01*
X-15618460Y70896452D01*
X-15226882Y70896452D01*
X-12226882Y70896455D01*
X-11848646Y70795108D01*
G37*
G36*
X-21106951Y64471480D02*
G01*
X-20920436Y64363796D01*
X-20768148Y64211508D01*
X-20660463Y64024993D01*
X-20604722Y63816964D01*
X-20604722Y63601595D01*
X-20660463Y63393566D01*
X-20768147Y63207051D01*
X-20920435Y63054763D01*
X-21106949Y62947078D01*
X-21314979Y62891337D01*
X-21530347Y62891337D01*
X-21738377Y62947078D01*
X-21924891Y63054762D01*
X-22077180Y63207050D01*
X-22184864Y63393564D01*
X-22240606Y63601594D01*
X-22240606Y63816962D01*
X-22184865Y64024992D01*
X-22077181Y64211506D01*
X-21924893Y64363795D01*
X-21738378Y64471479D01*
X-21530349Y64527221D01*
X-21314981Y64527221D01*
X-21106951Y64471480D01*
G37*
G36*
X-6097665Y65384294D02*
G01*
X-7747665Y65384293D01*
X-7747667Y67034293D01*
X-6097667Y67034294D01*
X-6097665Y65384294D01*
G37*
G36*
X-6606948Y61971494D02*
G01*
X-6420434Y61863811D01*
X-6268145Y61711522D01*
X-6160461Y61525008D01*
X-6104719Y61316978D01*
X-6104719Y61101610D01*
X-6160460Y60893580D01*
X-6268144Y60707066D01*
X-6420432Y60554777D01*
X-6606947Y60447093D01*
X-6814976Y60391352D01*
X-7030345Y60391351D01*
X-7238374Y60447093D01*
X-7424889Y60554776D01*
X-7577177Y60707065D01*
X-7684862Y60893579D01*
X-7740603Y61101609D01*
X-7740603Y61316977D01*
X-7684862Y61525007D01*
X-7577178Y61711521D01*
X-7424890Y61863809D01*
X-7238376Y61971494D01*
X-7030346Y62027235D01*
X-6814978Y62027236D01*
X-6606948Y61971494D01*
G37*
G36*
X-11848634Y59395108D02*
G01*
X-11509517Y59199319D01*
X-11232629Y58922431D01*
X-11036839Y58583314D01*
X-10935491Y58205079D01*
X-10935490Y57813500D01*
X-11036838Y57435264D01*
X-11232627Y57096147D01*
X-11509515Y56819259D01*
X-11848631Y56623469D01*
X-12226867Y56522121D01*
X-15618446Y56522117D01*
X-15996682Y56623465D01*
X-16335799Y56819254D01*
X-16612687Y57096141D01*
X-16808477Y57435258D01*
X-16909825Y57813494D01*
X-16909825Y58205073D01*
X-16808478Y58583309D01*
X-16612689Y58922426D01*
X-16335801Y59199314D01*
X-15996685Y59395104D01*
X-15618449Y59496452D01*
X-15226870Y59496452D01*
X-12226870Y59496455D01*
X-11848634Y59395108D01*
G37*
G36*
X-21106948Y61971480D02*
G01*
X-20920434Y61863796D01*
X-20768145Y61711508D01*
X-20660461Y61524993D01*
X-20604719Y61316964D01*
X-20604719Y61101595D01*
X-20660460Y60893566D01*
X-20768144Y60707051D01*
X-20920432Y60554763D01*
X-21106947Y60447078D01*
X-21314976Y60391337D01*
X-21530345Y60391337D01*
X-21738374Y60447078D01*
X-21924889Y60554762D01*
X-22077177Y60707050D01*
X-22184862Y60893564D01*
X-22240603Y61101594D01*
X-22240603Y61316962D01*
X-22184862Y61524992D01*
X-22077178Y61711506D01*
X-21924890Y61863795D01*
X-21738376Y61971479D01*
X-21530346Y62027221D01*
X-21314978Y62027221D01*
X-21106948Y61971480D01*
G37*
G36*
X-21106953Y66971480D02*
G01*
X-20920439Y66863796D01*
X-20768150Y66711508D01*
X-20660466Y66524993D01*
X-20604724Y66316964D01*
X-20604724Y66101595D01*
X-20660465Y65893566D01*
X-20768149Y65707051D01*
X-20920437Y65554763D01*
X-21106952Y65447078D01*
X-21314981Y65391337D01*
X-21530350Y65391337D01*
X-21738379Y65447078D01*
X-21924894Y65554762D01*
X-22077182Y65707050D01*
X-22184867Y65893564D01*
X-22240608Y66101594D01*
X-22240608Y66316962D01*
X-22184867Y66524992D01*
X-22077183Y66711506D01*
X-21924895Y66863795D01*
X-21738381Y66971479D01*
X-21530351Y67027221D01*
X-21314983Y67027221D01*
X-21106953Y66971480D01*
G37*
G36*
X25891447Y64580794D02*
G01*
X26094918Y64463321D01*
X26261052Y64297189D01*
X26378526Y64093720D01*
X26439336Y63866779D01*
X26439337Y63631831D01*
X26378529Y63404890D01*
X26261057Y63201419D01*
X26094925Y63035285D01*
X25891455Y62917811D01*
X25664514Y62857001D01*
X24229567Y62856994D01*
X24002625Y62917802D01*
X23799154Y63035275D01*
X23633021Y63201407D01*
X23515546Y63404876D01*
X23454736Y63631817D01*
X23454735Y63866765D01*
X23515543Y64093706D01*
X23633016Y64297177D01*
X23799148Y64463311D01*
X24002617Y64580785D01*
X24229558Y64641595D01*
X24464506Y64641596D01*
X25664506Y64641602D01*
X25891447Y64580794D01*
G37*
G36*
X41131412Y72200866D02*
G01*
X41334882Y72083393D01*
X41501016Y71917261D01*
X41618490Y71713791D01*
X41679300Y71486850D01*
X41679301Y71251903D01*
X41618494Y71024961D01*
X41501021Y70821490D01*
X41334889Y70655357D01*
X41131419Y70537882D01*
X40904478Y70477072D01*
X39469531Y70477066D01*
X39242589Y70537873D01*
X39039118Y70655346D01*
X38872985Y70821478D01*
X38755510Y71024948D01*
X38694701Y71251889D01*
X38694699Y71486836D01*
X38755507Y71713778D01*
X38872980Y71917249D01*
X39039112Y72083382D01*
X39242581Y72200857D01*
X39469523Y72261667D01*
X39704470Y72261668D01*
X40904470Y72261673D01*
X41131412Y72200866D01*
G37*
G36*
X25891459Y62040794D02*
G01*
X26094930Y61923321D01*
X26261064Y61757189D01*
X26378538Y61553720D01*
X26439348Y61326779D01*
X26439349Y61091831D01*
X26378541Y60864890D01*
X26261069Y60661419D01*
X26094937Y60495285D01*
X25891467Y60377811D01*
X25664526Y60317001D01*
X24229579Y60316994D01*
X24002637Y60377802D01*
X23799166Y60495275D01*
X23633033Y60661407D01*
X23515558Y60864876D01*
X23454748Y61091817D01*
X23454747Y61326765D01*
X23515555Y61553706D01*
X23633028Y61757177D01*
X23799159Y61923311D01*
X24002629Y62040785D01*
X24229570Y62101595D01*
X24464517Y62101596D01*
X25664517Y62101602D01*
X25891459Y62040794D01*
G37*
G36*
X41131483Y56960866D02*
G01*
X41334954Y56843393D01*
X41501087Y56677261D01*
X41618562Y56473791D01*
X41679372Y56246850D01*
X41679373Y56011903D01*
X41618565Y55784961D01*
X41501093Y55581490D01*
X41334961Y55415357D01*
X41131491Y55297882D01*
X40904550Y55237072D01*
X39469603Y55237066D01*
X39242661Y55297873D01*
X39039190Y55415346D01*
X38873056Y55581478D01*
X38755582Y55784948D01*
X38694772Y56011889D01*
X38694771Y56246836D01*
X38755579Y56473778D01*
X38873051Y56677249D01*
X39039183Y56843382D01*
X39242653Y56960857D01*
X39469594Y57021667D01*
X39704541Y57021668D01*
X40904541Y57021673D01*
X41131483Y56960866D01*
G37*
G36*
X41131459Y62040866D02*
G01*
X41334930Y61923393D01*
X41501064Y61757261D01*
X41618538Y61553791D01*
X41679348Y61326850D01*
X41679349Y61091903D01*
X41618541Y60864961D01*
X41501069Y60661490D01*
X41334937Y60495357D01*
X41131467Y60377882D01*
X40904526Y60317072D01*
X39469579Y60317066D01*
X39242637Y60377873D01*
X39039166Y60495346D01*
X38873033Y60661478D01*
X38755558Y60864948D01*
X38694748Y61091889D01*
X38694747Y61326836D01*
X38755555Y61553778D01*
X38873028Y61757249D01*
X39039159Y61923382D01*
X39242629Y62040857D01*
X39469570Y62101667D01*
X39704517Y62101668D01*
X40904517Y62101673D01*
X41131459Y62040866D01*
G37*
G36*
X25891435Y67120794D02*
G01*
X26094906Y67003321D01*
X26261040Y66837189D01*
X26378514Y66633720D01*
X26439324Y66406779D01*
X26439325Y66171831D01*
X26378517Y65944890D01*
X26261045Y65741419D01*
X26094913Y65575285D01*
X25891443Y65457811D01*
X25664502Y65397001D01*
X24229555Y65396994D01*
X24002613Y65457802D01*
X23799142Y65575275D01*
X23633009Y65741407D01*
X23515534Y65944876D01*
X23454724Y66171817D01*
X23454723Y66406765D01*
X23515531Y66633706D01*
X23633004Y66837177D01*
X23799136Y67003311D01*
X24002605Y67120785D01*
X24229546Y67181595D01*
X24464494Y67181596D01*
X25664494Y67181602D01*
X25891435Y67120794D01*
G37*
G36*
X41131435Y67120866D02*
G01*
X41334906Y67003393D01*
X41501040Y66837261D01*
X41618514Y66633791D01*
X41679324Y66406850D01*
X41679325Y66171903D01*
X41618517Y65944961D01*
X41501045Y65741490D01*
X41334913Y65575357D01*
X41131443Y65457882D01*
X40904502Y65397072D01*
X39469555Y65397066D01*
X39242613Y65457873D01*
X39039142Y65575346D01*
X38873009Y65741478D01*
X38755534Y65944948D01*
X38694724Y66171889D01*
X38694723Y66406836D01*
X38755531Y66633778D01*
X38873004Y66837249D01*
X39039136Y67003382D01*
X39242605Y67120857D01*
X39469546Y67181667D01*
X39704494Y67181668D01*
X40904494Y67181673D01*
X41131435Y67120866D01*
G37*
G36*
X41131471Y59500866D02*
G01*
X41334942Y59383393D01*
X41501075Y59217261D01*
X41618550Y59013791D01*
X41679360Y58786850D01*
X41679361Y58551903D01*
X41618553Y58324961D01*
X41501081Y58121490D01*
X41334949Y57955357D01*
X41131479Y57837882D01*
X40904538Y57777072D01*
X39469591Y57777066D01*
X39242649Y57837873D01*
X39039178Y57955346D01*
X38873045Y58121478D01*
X38755570Y58324948D01*
X38694760Y58551889D01*
X38694759Y58786836D01*
X38755567Y59013778D01*
X38873039Y59217249D01*
X39039171Y59383382D01*
X39242641Y59500857D01*
X39469582Y59561667D01*
X39704529Y59561668D01*
X40904529Y59561673D01*
X41131471Y59500866D01*
G37*
G36*
X41131447Y64580866D02*
G01*
X41334918Y64463393D01*
X41501052Y64297261D01*
X41618526Y64093791D01*
X41679336Y63866850D01*
X41679337Y63631903D01*
X41618529Y63404961D01*
X41501057Y63201490D01*
X41334925Y63035357D01*
X41131455Y62917882D01*
X40904514Y62857072D01*
X39469567Y62857066D01*
X39242625Y62917873D01*
X39039154Y63035346D01*
X38873021Y63201478D01*
X38755546Y63404948D01*
X38694736Y63631889D01*
X38694735Y63866836D01*
X38755543Y64093778D01*
X38873016Y64297249D01*
X39039148Y64463382D01*
X39242617Y64580857D01*
X39469558Y64641667D01*
X39704506Y64641668D01*
X40904506Y64641673D01*
X41131447Y64580866D01*
G37*
G36*
X25891424Y69660794D02*
G01*
X26094894Y69543321D01*
X26261028Y69377189D01*
X26378502Y69173720D01*
X26439312Y68946779D01*
X26439313Y68711831D01*
X26378506Y68484890D01*
X26261033Y68281419D01*
X26094901Y68115285D01*
X25891431Y67997811D01*
X25664490Y67937001D01*
X24229543Y67936994D01*
X24002601Y67997802D01*
X23799130Y68115275D01*
X23632997Y68281407D01*
X23515522Y68484876D01*
X23454713Y68711817D01*
X23454711Y68946765D01*
X23515519Y69173706D01*
X23632992Y69377177D01*
X23799124Y69543311D01*
X24002593Y69660785D01*
X24229535Y69721595D01*
X24464482Y69721596D01*
X25664482Y69721602D01*
X25891424Y69660794D01*
G37*
G36*
X26447005Y70469305D02*
G01*
X23447005Y70469291D01*
X23446996Y72269291D01*
X26446996Y72269305D01*
X26447005Y70469305D01*
G37*
G36*
X25891483Y56960794D02*
G01*
X26094954Y56843321D01*
X26261087Y56677189D01*
X26378562Y56473720D01*
X26439372Y56246779D01*
X26439373Y56011831D01*
X26378565Y55784890D01*
X26261093Y55581419D01*
X26094961Y55415285D01*
X25891491Y55297811D01*
X25664550Y55237001D01*
X24229603Y55236994D01*
X24002661Y55297802D01*
X23799190Y55415275D01*
X23633056Y55581407D01*
X23515582Y55784876D01*
X23454772Y56011817D01*
X23454771Y56246765D01*
X23515579Y56473706D01*
X23633051Y56677177D01*
X23799183Y56843311D01*
X24002653Y56960785D01*
X24229594Y57021595D01*
X24464541Y57021596D01*
X25664541Y57021602D01*
X25891483Y56960794D01*
G37*
G36*
X25891471Y59500794D02*
G01*
X26094942Y59383321D01*
X26261075Y59217189D01*
X26378550Y59013720D01*
X26439360Y58786779D01*
X26439361Y58551831D01*
X26378553Y58324890D01*
X26261081Y58121419D01*
X26094949Y57955285D01*
X25891479Y57837811D01*
X25664538Y57777001D01*
X24229591Y57776994D01*
X24002649Y57837802D01*
X23799178Y57955275D01*
X23633045Y58121407D01*
X23515570Y58324876D01*
X23454760Y58551817D01*
X23454759Y58786765D01*
X23515567Y59013706D01*
X23633039Y59217177D01*
X23799171Y59383311D01*
X24002641Y59500785D01*
X24229582Y59561595D01*
X24464529Y59561596D01*
X25664529Y59561602D01*
X25891471Y59500794D01*
G37*
G36*
X41131424Y69660866D02*
G01*
X41334894Y69543393D01*
X41501028Y69377261D01*
X41618502Y69173791D01*
X41679312Y68946850D01*
X41679313Y68711903D01*
X41618506Y68484961D01*
X41501033Y68281490D01*
X41334901Y68115357D01*
X41131431Y67997882D01*
X40904490Y67937072D01*
X39469543Y67937066D01*
X39242601Y67997873D01*
X39039130Y68115346D01*
X38872997Y68281478D01*
X38755522Y68484948D01*
X38694713Y68711889D01*
X38694711Y68946836D01*
X38755519Y69173778D01*
X38872992Y69377249D01*
X39039124Y69543382D01*
X39242593Y69660857D01*
X39469535Y69721667D01*
X39704482Y69721668D01*
X40904482Y69721673D01*
X41131424Y69660866D01*
G37*
G36*
X-65201063Y-67792507D02*
G01*
X-64748907Y-68053559D01*
X-64379722Y-68422742D01*
X-64118670Y-68874898D01*
X-63983538Y-69379212D01*
X-63983538Y-69901317D01*
X-64118668Y-70405632D01*
X-64379720Y-70857788D01*
X-64748903Y-71226972D01*
X-65201059Y-71488025D01*
X-65705373Y-71623156D01*
X-66227478Y-71623157D01*
X-66731793Y-71488027D01*
X-67183949Y-71226975D01*
X-67553133Y-70857791D01*
X-67814186Y-70405635D01*
X-67949317Y-69901321D01*
X-67949318Y-69379216D01*
X-67814188Y-68874902D01*
X-67553136Y-68422745D01*
X-67183952Y-68053561D01*
X-66731797Y-67792508D01*
X-66227482Y-67657377D01*
X-65705377Y-67657377D01*
X-65201063Y-67792507D01*
G37*
G36*
X-58655385Y-45608800D02*
G01*
X-58203229Y-45869852D01*
X-57834045Y-46239036D01*
X-57572992Y-46691191D01*
X-57437861Y-47195506D01*
X-57437860Y-47717610D01*
X-57572991Y-48221925D01*
X-57834043Y-48674081D01*
X-58203226Y-49043265D01*
X-58655382Y-49304318D01*
X-59159696Y-49439450D01*
X-59681801Y-49439450D01*
X-60186115Y-49304320D01*
X-60638272Y-49043268D01*
X-61007456Y-48674085D01*
X-61268509Y-48221929D01*
X-61403640Y-47717614D01*
X-61403640Y-47195510D01*
X-61268510Y-46691195D01*
X-61007458Y-46239039D01*
X-60638275Y-45869855D01*
X-60186119Y-45608802D01*
X-59681805Y-45473671D01*
X-59159700Y-45473670D01*
X-58655385Y-45608800D01*
G37*
G36*
X-80154927Y-4829322D02*
G01*
X-79702771Y-5090374D01*
X-79333587Y-5459557D01*
X-79072534Y-5911713D01*
X-78937403Y-6416028D01*
X-78937402Y-6938132D01*
X-79072532Y-7442447D01*
X-79333584Y-7894603D01*
X-79702768Y-8263787D01*
X-80154923Y-8524840D01*
X-80659238Y-8659971D01*
X-81181342Y-8659972D01*
X-81685657Y-8524842D01*
X-82137813Y-8263790D01*
X-82506997Y-7894606D01*
X-82768050Y-7442451D01*
X-82903181Y-6938136D01*
X-82903182Y-6416032D01*
X-82768052Y-5911717D01*
X-82507000Y-5459561D01*
X-82137816Y-5090377D01*
X-81685661Y-4829324D01*
X-81181346Y-4694193D01*
X-80659242Y-4694192D01*
X-80154927Y-4829322D01*
G37*
G36*
X-91000542Y10074467D02*
G01*
X-90548386Y9813415D01*
X-90179202Y9444231D01*
X-89918149Y8992076D01*
X-89783018Y8487761D01*
X-89783017Y7965657D01*
X-89918147Y7461342D01*
X-90179199Y7009186D01*
X-90548383Y6640002D01*
X-91000538Y6378949D01*
X-91504853Y6243818D01*
X-92026958Y6243817D01*
X-92531272Y6378947D01*
X-92983428Y6639999D01*
X-93352613Y7009182D01*
X-93613666Y7461338D01*
X-93748797Y7965653D01*
X-93748797Y8487757D01*
X-93613667Y8992072D01*
X-93352615Y9444228D01*
X-92983432Y9813412D01*
X-92531276Y10074465D01*
X-92026962Y10209596D01*
X-91504857Y10209597D01*
X-91000542Y10074467D01*
G37*
G36*
X-43132706Y-70177635D02*
G01*
X-42397952Y-70601844D01*
X-41798028Y-71201767D01*
X-41373817Y-71936520D01*
X-41154229Y-72756031D01*
X-41154228Y-73604452D01*
X-41373814Y-74423963D01*
X-41798024Y-75158717D01*
X-42397947Y-75758641D01*
X-43132700Y-76182852D01*
X-43952211Y-76402440D01*
X-44800631Y-76402441D01*
X-45620142Y-76182854D01*
X-46354896Y-75758645D01*
X-46954821Y-75158722D01*
X-47379031Y-74423969D01*
X-47598620Y-73604458D01*
X-47598620Y-72756038D01*
X-47379034Y-71936527D01*
X-46954825Y-71201773D01*
X-46354901Y-70601848D01*
X-45620148Y-70177637D01*
X-44800638Y-69958049D01*
X-43952217Y-69958048D01*
X-43132706Y-70177635D01*
G37*
G36*
X44908094Y-70177645D02*
G01*
X45642848Y-70601855D01*
X46242772Y-71201778D01*
X46666983Y-71936531D01*
X46886571Y-72756042D01*
X46886572Y-73604462D01*
X46666986Y-74423973D01*
X46242776Y-75158727D01*
X45642853Y-75758651D01*
X44908100Y-76182862D01*
X44088589Y-76402450D01*
X43240169Y-76402451D01*
X42420658Y-76182865D01*
X41685904Y-75758655D01*
X41085979Y-75158732D01*
X40661769Y-74423979D01*
X40442180Y-73604468D01*
X40442180Y-72756048D01*
X40661766Y-71936537D01*
X41085975Y-71201783D01*
X41685899Y-70601859D01*
X42420652Y-70177648D01*
X43240162Y-69958060D01*
X44088583Y-69958059D01*
X44908094Y-70177645D01*
G37*
G36*
X45638142Y79096856D02*
G01*
X46372896Y78672646D01*
X46972820Y78072723D01*
X47397031Y77337970D01*
X47616619Y76518459D01*
X47616620Y75670039D01*
X47397033Y74850528D01*
X46972824Y74115774D01*
X46372901Y73515849D01*
X45638148Y73091639D01*
X44818637Y72872050D01*
X43970217Y72872050D01*
X43150705Y73091636D01*
X42415952Y73515845D01*
X41816027Y74115769D01*
X41391816Y74850522D01*
X41172228Y75670032D01*
X41172227Y76518453D01*
X41391814Y77337964D01*
X41816023Y78072718D01*
X42415946Y78672642D01*
X43150699Y79096853D01*
X43970210Y79316441D01*
X44818630Y79316442D01*
X45638142Y79096856D01*
G37*
G36*
X-44577957Y78219664D02*
G01*
X-43843204Y77795454D01*
X-43243279Y77195531D01*
X-42819068Y76460778D01*
X-42599480Y75641267D01*
X-42599479Y74792847D01*
X-42819066Y73973336D01*
X-43243275Y73238582D01*
X-43843198Y72638657D01*
X-44577951Y72214447D01*
X-45397462Y71994858D01*
X-46245882Y71994858D01*
X-47065394Y72214444D01*
X-47800148Y72638653D01*
X-48400072Y73238577D01*
X-48824283Y73973330D01*
X-49043871Y74792840D01*
X-49043872Y75641261D01*
X-48824285Y76460772D01*
X-48400076Y77195526D01*
X-47800153Y77795450D01*
X-47065400Y78219661D01*
X-46245889Y78439249D01*
X-45397469Y78439250D01*
X-44577957Y78219664D01*
G37*
%TD*%
M02*
