%TF.GenerationSoftware,Flux,Pcbnew,9.0.6-9.0.6~ubuntu22.04.1*%
%TF.CreationDate,2025-12-12T06:51:16+00:00*%
%TF.ProjectId,input,696e7075-742e-46b6-9963-61645f706362,rev?*%
%TF.SameCoordinates,Original*%
%TF.FileFunction,Paste,Top*%
%TF.FilePolarity,Positive*%
%FSLAX46Y46*%
G04 Gerber Fmt 4.6, Leading zero omitted, Abs format (unit mm)*
G04 Filename: macropad*
G04 Build it with Flux! Visit our site at: https://www.flux.ai (PCBNEW 9.0.6-9.0.6~ubuntu22.04.1) date 2025-12-12 06:51:16*
%MOMM*%
%LPD*%
G01*
G04 APERTURE LIST*
%ADD10C,0.000000*%
G04 APERTURE END LIST*
D10*
%TO.C,*%
G36*
X-61705368Y-82936059D02*
G01*
X-61524505Y-83040480D01*
X-61376831Y-83188153D01*
X-61272410Y-83369015D01*
X-61218358Y-83570741D01*
X-61218358Y-83779583D01*
X-61272410Y-83981309D01*
X-61376830Y-84162171D01*
X-61524504Y-84309845D01*
X-61705366Y-84414266D01*
X-61907092Y-84468318D01*
X-62115934Y-84468319D01*
X-62317660Y-84414267D01*
X-62498522Y-84309846D01*
X-62646196Y-84162172D01*
X-62750617Y-83981310D01*
X-62804669Y-83779584D01*
X-62804670Y-83570743D01*
X-62750617Y-83369017D01*
X-62646197Y-83188154D01*
X-62498523Y-83040481D01*
X-62317661Y-82936059D01*
X-62115935Y-82882007D01*
X-61907093Y-82882007D01*
X-61705368Y-82936059D01*
G37*
G36*
X26367158Y42641227D02*
G01*
X25147158Y42641226D01*
X25147157Y43551226D01*
X26367157Y43551227D01*
X26367158Y42641227D01*
G37*
G36*
X26367161Y39361227D02*
G01*
X25147161Y39361226D01*
X25147160Y40271226D01*
X26367160Y40271227D01*
X26367161Y39361227D01*
G37*
G36*
X34284265Y35449435D02*
G01*
X33064265Y35449434D01*
X33064264Y36359434D01*
X34284264Y36359435D01*
X34284265Y35449435D01*
G37*
G36*
X34284268Y32169435D02*
G01*
X33064268Y32169434D01*
X33064267Y33079434D01*
X34284267Y33079435D01*
X34284268Y32169435D01*
G37*
G36*
X-9933376Y-26213397D02*
G01*
X-9933373Y-27033397D01*
X-9934373Y-27034397D01*
X-11480373Y-27034404D01*
X-11481373Y-27033404D01*
X-11481376Y-26213404D01*
X-11480376Y-26212404D01*
X-9934376Y-26212397D01*
X-9933376Y-26213397D01*
G37*
G36*
X-15187376Y-26213422D02*
G01*
X-15187373Y-27033422D01*
X-15188373Y-27034422D01*
X-16734373Y-27034429D01*
X-16735373Y-27033429D01*
X-16735376Y-26213429D01*
X-16734376Y-26212429D01*
X-15188376Y-26212422D01*
X-15187376Y-26213422D01*
G37*
G36*
X-15187369Y-27713422D02*
G01*
X-15187365Y-28533422D01*
X-15188365Y-28534422D01*
X-16734365Y-28534429D01*
X-16735365Y-28533429D01*
X-16735369Y-27713429D01*
X-16734369Y-27712429D01*
X-15188369Y-27712422D01*
X-15187369Y-27713422D01*
G37*
G36*
X-9933369Y-27713397D02*
G01*
X-9933365Y-28533397D01*
X-9934365Y-28534397D01*
X-11480365Y-28534404D01*
X-11481365Y-28533404D01*
X-11481369Y-27713404D01*
X-11480369Y-27712404D01*
X-9934369Y-27712397D01*
X-9933369Y-27713397D01*
G37*
G36*
X17769765Y35449419D02*
G01*
X16549765Y35449417D01*
X16549764Y36359417D01*
X17769764Y36359419D01*
X17769765Y35449419D01*
G37*
G36*
X17769768Y32169419D02*
G01*
X16549768Y32169417D01*
X16549767Y33079417D01*
X17769767Y33079419D01*
X17769768Y32169419D01*
G37*
G36*
X-31385704Y1307481D02*
G01*
X-31385701Y487481D01*
X-31386701Y486481D01*
X-32932701Y486474D01*
X-32933701Y487474D01*
X-32933704Y1307474D01*
X-32932704Y1308474D01*
X-31386704Y1308481D01*
X-31385704Y1307481D01*
G37*
G36*
X-36639704Y1307456D02*
G01*
X-36639701Y487456D01*
X-36640701Y486456D01*
X-38186701Y486449D01*
X-38187701Y487449D01*
X-38187704Y1307449D01*
X-38186704Y1308449D01*
X-36640704Y1308456D01*
X-36639704Y1307456D01*
G37*
G36*
X-36639697Y-192544D02*
G01*
X-36639694Y-1012544D01*
X-36640694Y-1013544D01*
X-38186694Y-1013551D01*
X-38187694Y-1012551D01*
X-38187697Y-192551D01*
X-38186697Y-191551D01*
X-36640697Y-191544D01*
X-36639697Y-192544D01*
G37*
G36*
X-31385697Y-192519D02*
G01*
X-31385694Y-1012519D01*
X-31386694Y-1013519D01*
X-32932694Y-1013526D01*
X-32933694Y-1012526D01*
X-32933697Y-192526D01*
X-32932697Y-191526D01*
X-31386697Y-191519D01*
X-31385697Y-192519D01*
G37*
G36*
X26367165Y35449427D02*
G01*
X25147165Y35449426D01*
X25147164Y36359426D01*
X26367164Y36359427D01*
X26367165Y35449427D01*
G37*
G36*
X26367168Y32169427D02*
G01*
X25147168Y32169426D01*
X25147167Y33079426D01*
X26367167Y33079427D01*
X26367168Y32169427D01*
G37*
G36*
X10574358Y42641211D02*
G01*
X9354358Y42641210D01*
X9354357Y43551210D01*
X10574357Y43551211D01*
X10574358Y42641211D01*
G37*
G36*
X10574361Y39361211D02*
G01*
X9354361Y39361210D01*
X9354360Y40271210D01*
X10574360Y40271211D01*
X10574361Y39361211D01*
G37*
G36*
X15385553Y-54688071D02*
G01*
X15385557Y-55508071D01*
X15384557Y-55509071D01*
X13838557Y-55509079D01*
X13837557Y-55508079D01*
X13837553Y-54688079D01*
X13838553Y-54687079D01*
X15384553Y-54687071D01*
X15385553Y-54688071D01*
G37*
G36*
X10131553Y-54688096D02*
G01*
X10131557Y-55508096D01*
X10130557Y-55509096D01*
X8584557Y-55509103D01*
X8583557Y-55508103D01*
X8583553Y-54688103D01*
X8584553Y-54687103D01*
X10130553Y-54687096D01*
X10131553Y-54688096D01*
G37*
G36*
X10131560Y-56188096D02*
G01*
X10131564Y-57008096D01*
X10130564Y-57009096D01*
X8584564Y-57009103D01*
X8583564Y-57008103D01*
X8583560Y-56188103D01*
X8584560Y-56187103D01*
X10130560Y-56187096D01*
X10131560Y-56188096D01*
G37*
G36*
X15385560Y-56188071D02*
G01*
X15385564Y-57008071D01*
X15384564Y-57009071D01*
X13838564Y-57009079D01*
X13837564Y-57008079D01*
X13837560Y-56188079D01*
X13838560Y-56187079D01*
X15384560Y-56187071D01*
X15385560Y-56188071D01*
G37*
G36*
X42504365Y35449444D02*
G01*
X41284365Y35449443D01*
X41284364Y36359443D01*
X42504364Y36359444D01*
X42504365Y35449444D01*
G37*
G36*
X42504368Y32169444D02*
G01*
X41284368Y32169443D01*
X41284367Y33079443D01*
X42504367Y33079444D01*
X42504368Y32169444D01*
G37*
G36*
X2041765Y35449403D02*
G01*
X821765Y35449401D01*
X821764Y36359401D01*
X2041764Y36359403D01*
X2041765Y35449403D01*
G37*
G36*
X2041768Y32169403D02*
G01*
X821768Y32169401D01*
X821767Y33079401D01*
X2041767Y33079403D01*
X2041768Y32169403D01*
G37*
G36*
X2041758Y42641203D02*
G01*
X821758Y42641201D01*
X821757Y43551201D01*
X2041757Y43551203D01*
X2041758Y42641203D01*
G37*
G36*
X2041761Y39361203D02*
G01*
X821761Y39361201D01*
X821760Y40271201D01*
X2041760Y40271203D01*
X2041761Y39361203D01*
G37*
G36*
X34587258Y42641236D02*
G01*
X33367258Y42641235D01*
X33367257Y43551235D01*
X34587257Y43551236D01*
X34587258Y42641236D01*
G37*
G36*
X34587261Y39361236D02*
G01*
X33367261Y39361235D01*
X33367260Y40271235D01*
X34587260Y40271236D01*
X34587261Y39361236D01*
G37*
G36*
X39284253Y-54938147D02*
G01*
X39284257Y-55758147D01*
X39283257Y-55759147D01*
X37737257Y-55759154D01*
X37736257Y-55758154D01*
X37736253Y-54938154D01*
X37737253Y-54937154D01*
X39283253Y-54937147D01*
X39284253Y-54938147D01*
G37*
G36*
X34030253Y-54938172D02*
G01*
X34030257Y-55758172D01*
X34029257Y-55759172D01*
X32483257Y-55759179D01*
X32482257Y-55758179D01*
X32482253Y-54938179D01*
X32483253Y-54937179D01*
X34029253Y-54937172D01*
X34030253Y-54938172D01*
G37*
G36*
X34030260Y-56438172D02*
G01*
X34030264Y-57258172D01*
X34029264Y-57259172D01*
X32483264Y-57259179D01*
X32482264Y-57258179D01*
X32482260Y-56438179D01*
X32483260Y-56437179D01*
X34029260Y-56437172D01*
X34030260Y-56438172D01*
G37*
G36*
X39284260Y-56438147D02*
G01*
X39284264Y-57258147D01*
X39283264Y-57259147D01*
X37737264Y-57259154D01*
X37736264Y-57258154D01*
X37736260Y-56438154D01*
X37737260Y-56437154D01*
X39283260Y-56437147D01*
X39284260Y-56438147D01*
G37*
G36*
X39747123Y-25963446D02*
G01*
X39747127Y-26783446D01*
X39746127Y-26784446D01*
X38200127Y-26784454D01*
X38199127Y-26783454D01*
X38199123Y-25963454D01*
X38200123Y-25962454D01*
X39746123Y-25962446D01*
X39747123Y-25963446D01*
G37*
G36*
X34493123Y-25963471D02*
G01*
X34493127Y-26783471D01*
X34492127Y-26784471D01*
X32946127Y-26784478D01*
X32945127Y-26783478D01*
X32945123Y-25963478D01*
X32946123Y-25962478D01*
X34492123Y-25962471D01*
X34493123Y-25963471D01*
G37*
G36*
X34493130Y-27463471D02*
G01*
X34493134Y-28283471D01*
X34492134Y-28284471D01*
X32946134Y-28284478D01*
X32945134Y-28283478D01*
X32945130Y-27463478D01*
X32946130Y-27462478D01*
X34492130Y-27462471D01*
X34493130Y-27463471D01*
G37*
G36*
X39747130Y-27463446D02*
G01*
X39747134Y-28283446D01*
X39746134Y-28284446D01*
X38200134Y-28284454D01*
X38199134Y-28283454D01*
X38199130Y-27463454D01*
X38200130Y-27462454D01*
X39746130Y-27462446D01*
X39747130Y-27463446D01*
G37*
G36*
X42504358Y42641244D02*
G01*
X41284358Y42641243D01*
X41284357Y43551243D01*
X42504357Y43551244D01*
X42504358Y42641244D01*
G37*
G36*
X42504361Y39361244D02*
G01*
X41284361Y39361243D01*
X41284360Y40271243D01*
X42504360Y40271244D01*
X42504361Y39361244D01*
G37*
G36*
X14007496Y1057427D02*
G01*
X14007500Y237427D01*
X14006500Y236427D01*
X12460500Y236420D01*
X12459500Y237420D01*
X12459496Y1057420D01*
X12460496Y1058420D01*
X14006496Y1058427D01*
X14007496Y1057427D01*
G37*
G36*
X8753496Y1057403D02*
G01*
X8753500Y237403D01*
X8752500Y236403D01*
X7206500Y236395D01*
X7205500Y237395D01*
X7205496Y1057395D01*
X7206496Y1058395D01*
X8752496Y1058403D01*
X8753496Y1057403D01*
G37*
G36*
X8753503Y-442597D02*
G01*
X8753507Y-1262597D01*
X8752507Y-1263597D01*
X7206507Y-1263605D01*
X7205507Y-1262605D01*
X7205503Y-442605D01*
X7206503Y-441605D01*
X8752503Y-441597D01*
X8753503Y-442597D01*
G37*
G36*
X14007503Y-442573D02*
G01*
X14007507Y-1262573D01*
X14006507Y-1263573D01*
X12460507Y-1263580D01*
X12459507Y-1262580D01*
X12459503Y-442580D01*
X12460503Y-441580D01*
X14006503Y-441573D01*
X14007503Y-442573D01*
G37*
G36*
X39284296Y1307453D02*
G01*
X39284299Y487453D01*
X39283299Y486453D01*
X37737299Y486446D01*
X37736299Y487446D01*
X37736296Y1307446D01*
X37737296Y1308446D01*
X39283296Y1308453D01*
X39284296Y1307453D01*
G37*
G36*
X34030296Y1307428D02*
G01*
X34030299Y487428D01*
X34029299Y486428D01*
X32483299Y486421D01*
X32482299Y487421D01*
X32482296Y1307421D01*
X32483296Y1308421D01*
X34029296Y1308428D01*
X34030296Y1307428D01*
G37*
G36*
X34030303Y-192572D02*
G01*
X34030306Y-1012572D01*
X34029306Y-1013572D01*
X32483306Y-1013579D01*
X32482306Y-1012579D01*
X32482303Y-192579D01*
X32483303Y-191579D01*
X34029303Y-191572D01*
X34030303Y-192572D01*
G37*
G36*
X39284303Y-192547D02*
G01*
X39284306Y-1012547D01*
X39283306Y-1013547D01*
X37737306Y-1013554D01*
X37736306Y-1012554D01*
X37736303Y-192554D01*
X37737303Y-191554D01*
X39283303Y-191547D01*
X39284303Y-192547D01*
G37*
G36*
X10574365Y35449411D02*
G01*
X9354365Y35449410D01*
X9354364Y36359410D01*
X10574364Y36359411D01*
X10574365Y35449411D01*
G37*
G36*
X10574368Y32169411D02*
G01*
X9354368Y32169410D01*
X9354367Y33079410D01*
X10574367Y33079411D01*
X10574368Y32169411D01*
G37*
G36*
X15385524Y-26713471D02*
G01*
X15385528Y-27533471D01*
X15384528Y-27534471D01*
X13838528Y-27534479D01*
X13837528Y-27533479D01*
X13837524Y-26713479D01*
X13838524Y-26712479D01*
X15384524Y-26712471D01*
X15385524Y-26713471D01*
G37*
G36*
X10131524Y-26713496D02*
G01*
X10131528Y-27533496D01*
X10130528Y-27534496D01*
X8584528Y-27534503D01*
X8583528Y-27533503D01*
X8583524Y-26713503D01*
X8584524Y-26712503D01*
X10130524Y-26712496D01*
X10131524Y-26713496D01*
G37*
G36*
X10131531Y-28213496D02*
G01*
X10131535Y-29033496D01*
X10130535Y-29034496D01*
X8584535Y-29034503D01*
X8583535Y-29033503D01*
X8583531Y-28213503D01*
X8584531Y-28212503D01*
X10130531Y-28212496D01*
X10131531Y-28213496D01*
G37*
G36*
X15385531Y-28213471D02*
G01*
X15385535Y-29033471D01*
X15384535Y-29034471D01*
X13838535Y-29034479D01*
X13837535Y-29033479D01*
X13837531Y-28213479D01*
X13838531Y-28212479D01*
X15384531Y-28212471D01*
X15385531Y-28213471D01*
G37*
G36*
X-8937448Y-54438196D02*
G01*
X-8937444Y-55258196D01*
X-8938444Y-55259196D01*
X-10484444Y-55259203D01*
X-10485444Y-55258203D01*
X-10485448Y-54438203D01*
X-10484448Y-54437203D01*
X-8938448Y-54437196D01*
X-8937448Y-54438196D01*
G37*
G36*
X-14191448Y-54438221D02*
G01*
X-14191444Y-55258221D01*
X-14192444Y-55259221D01*
X-15738444Y-55259228D01*
X-15739444Y-55258228D01*
X-15739448Y-54438228D01*
X-15738448Y-54437228D01*
X-14192448Y-54437221D01*
X-14191448Y-54438221D01*
G37*
G36*
X-14191441Y-55938221D02*
G01*
X-14191437Y-56758221D01*
X-14192437Y-56759221D01*
X-15738437Y-56759228D01*
X-15739437Y-56758228D01*
X-15739441Y-55938228D01*
X-15738441Y-55937228D01*
X-14192441Y-55937221D01*
X-14191441Y-55938221D01*
G37*
G36*
X-8937441Y-55938196D02*
G01*
X-8937437Y-56758196D01*
X-8938437Y-56759196D01*
X-10484437Y-56759203D01*
X-10485437Y-56758203D01*
X-10485441Y-55938203D01*
X-10484441Y-55937203D01*
X-8938441Y-55937196D01*
X-8937441Y-55938196D01*
G37*
G36*
X-33271881Y76040179D02*
G01*
X-33271877Y75220179D01*
X-33272877Y75219179D01*
X-34818877Y75219172D01*
X-34819877Y75220172D01*
X-34819881Y76040172D01*
X-34818881Y76041172D01*
X-33272881Y76041179D01*
X-33271881Y76040179D01*
G37*
G36*
X-38525881Y76040154D02*
G01*
X-38525877Y75220154D01*
X-38526877Y75219154D01*
X-40072877Y75219147D01*
X-40073877Y75220147D01*
X-40073881Y76040147D01*
X-40072881Y76041147D01*
X-38526881Y76041154D01*
X-38525881Y76040154D01*
G37*
G36*
X-38525874Y74540154D02*
G01*
X-38525870Y73720154D01*
X-38526870Y73719154D01*
X-40072870Y73719147D01*
X-40073870Y73720147D01*
X-40073874Y74540147D01*
X-40072874Y74541147D01*
X-38526874Y74541154D01*
X-38525874Y74540154D01*
G37*
G36*
X-33271874Y74540179D02*
G01*
X-33271870Y73720179D01*
X-33272870Y73719179D01*
X-34818870Y73719172D01*
X-34819870Y73720172D01*
X-34819874Y74540172D01*
X-34818874Y74541172D01*
X-33272874Y74541179D01*
X-33271874Y74540179D01*
G37*
G36*
X-10315404Y1307503D02*
G01*
X-10315401Y487503D01*
X-10316401Y486503D01*
X-11862401Y486495D01*
X-11863401Y487495D01*
X-11863404Y1307495D01*
X-11862404Y1308495D01*
X-10316404Y1308503D01*
X-10315404Y1307503D01*
G37*
G36*
X-15569404Y1307478D02*
G01*
X-15569401Y487478D01*
X-15570401Y486478D01*
X-17116401Y486471D01*
X-17117401Y487471D01*
X-17117404Y1307471D01*
X-17116404Y1308471D01*
X-15570404Y1308478D01*
X-15569404Y1307478D01*
G37*
G36*
X-15569397Y-192522D02*
G01*
X-15569394Y-1012522D01*
X-15570394Y-1013522D01*
X-17116394Y-1013529D01*
X-17117394Y-1012529D01*
X-17117397Y-192529D01*
X-17116397Y-191529D01*
X-15570397Y-191522D01*
X-15569397Y-192522D01*
G37*
G36*
X-10315397Y-192497D02*
G01*
X-10315394Y-1012497D01*
X-10316394Y-1013497D01*
X-11862394Y-1013505D01*
X-11863394Y-1012505D01*
X-11863397Y-192505D01*
X-11862397Y-191505D01*
X-10316397Y-191497D01*
X-10315397Y-192497D01*
G37*
G36*
X-31385748Y-53938119D02*
G01*
X-31385744Y-54758119D01*
X-31386744Y-54759119D01*
X-32932744Y-54759126D01*
X-32933744Y-54758126D01*
X-32933748Y-53938126D01*
X-32932748Y-53937126D01*
X-31386748Y-53937119D01*
X-31385748Y-53938119D01*
G37*
G36*
X-36639748Y-53938144D02*
G01*
X-36639744Y-54758144D01*
X-36640744Y-54759144D01*
X-38186744Y-54759151D01*
X-38187744Y-54758151D01*
X-38187748Y-53938151D01*
X-38186748Y-53937151D01*
X-36640748Y-53937144D01*
X-36639748Y-53938144D01*
G37*
G36*
X-36639741Y-55438144D02*
G01*
X-36639737Y-56258144D01*
X-36640737Y-56259144D01*
X-38186737Y-56259151D01*
X-38187737Y-56258151D01*
X-38187741Y-55438151D01*
X-38186741Y-55437151D01*
X-36640741Y-55437144D01*
X-36639741Y-55438144D01*
G37*
G36*
X-31385741Y-55438119D02*
G01*
X-31385737Y-56258119D01*
X-31386737Y-56259119D01*
X-32932737Y-56259126D01*
X-32933737Y-56258126D01*
X-32933741Y-55438126D01*
X-32932741Y-55437126D01*
X-31386741Y-55437119D01*
X-31385741Y-55438119D01*
G37*
G36*
X17769758Y42641219D02*
G01*
X16549758Y42641217D01*
X16549757Y43551217D01*
X17769757Y43551219D01*
X17769758Y42641219D01*
G37*
G36*
X17769761Y39361219D02*
G01*
X16549761Y39361217D01*
X16549760Y40271217D01*
X17769760Y40271219D01*
X17769761Y39361219D01*
G37*
G36*
X-31220376Y-26213419D02*
G01*
X-31220373Y-27033419D01*
X-31221373Y-27034419D01*
X-32767373Y-27034426D01*
X-32768373Y-27033426D01*
X-32768376Y-26213426D01*
X-32767376Y-26212426D01*
X-31221376Y-26212419D01*
X-31220376Y-26213419D01*
G37*
G36*
X-36474376Y-26213443D02*
G01*
X-36474373Y-27033443D01*
X-36475373Y-27034443D01*
X-38021373Y-27034451D01*
X-38022373Y-27033451D01*
X-38022376Y-26213451D01*
X-38021376Y-26212451D01*
X-36475376Y-26212443D01*
X-36474376Y-26213443D01*
G37*
G36*
X-36474369Y-27713443D02*
G01*
X-36474365Y-28533443D01*
X-36475365Y-28534443D01*
X-38021365Y-28534451D01*
X-38022365Y-28533451D01*
X-38022369Y-27713451D01*
X-38021369Y-27712451D01*
X-36475369Y-27712443D01*
X-36474369Y-27713443D01*
G37*
G36*
X-31220369Y-27713419D02*
G01*
X-31220365Y-28533419D01*
X-31221365Y-28534419D01*
X-32767365Y-28534426D01*
X-32768365Y-28533426D01*
X-32768369Y-27713426D01*
X-32767369Y-27712426D01*
X-31221369Y-27712419D01*
X-31220369Y-27713419D01*
G37*
%TD*%
M02*
