M48
; DRILL file {Flux 9.0.6-9.0.6~ubuntu22.04.1} date 2025-12-12T06:51:19+0000
; FORMAT={-:-/ absolute / metric / decimal}
; #@! TF.CreationDate,2025-12-12T06:51:19+00:00
; #@! TF.GenerationSoftware,Kicad,Pcbnew,9.0.6-9.0.6~ubuntu22.04.1
; #@! TF.FileFunction,MixedPlating,1,4
FMAT,2
METRIC
; #@! TA.AperFunction,Plated,PTH,ComponentDrill
T1C0.300
; #@! TA.AperFunction,Plated,PTH,ComponentDrill
T2C1.000
; #@! TA.AperFunction,Plated,PTH,ComponentDrill
T3C1.100
; #@! TA.AperFunction,Plated,PTH,ComponentDrill
T4C1.500
; #@! TA.AperFunction,Plated,PTH,ComponentDrill
T5C2.000
; #@! TA.AperFunction,Plated,PTH,ComponentDrill
T6C3.000
; #@! TA.AperFunction,NonPlated,NPTH,ComponentDrill
T7C1.000
; #@! TA.AperFunction,NonPlated,NPTH,ComponentDrill
T8C1.700
; #@! TA.AperFunction,NonPlated,NPTH,ComponentDrill
T9C4.000
%
G90
G05
T1
X-48.322Y75.217
X-47.592Y76.987
X-47.592Y73.447
X-46.876Y-73.18
X-46.146Y-71.41
X-46.146Y-74.95
X-45.822Y77.717
X-45.822Y72.717
X-44.376Y-70.68
X-44.376Y-75.68
X-44.052Y76.987
X-44.052Y73.447
X-43.322Y75.217
X-42.606Y-71.41
X-42.606Y-74.95
X-41.876Y-73.18
X-38.615Y-55.435
X-37.415Y-53.51
X-32.845Y75.217
X-25.837Y-6.934
X-25.409Y13.568
X-24.417Y1.65
X-19.752Y-0.603
X-18.035Y-26.623
X-14.966Y-51.052
X-13.942Y-57.844
X-9.506Y-26.623
X-9.139Y0.897
X-4.959Y-50.655
X-3.301Y48.633
X-2.544Y-6.934
X-0.668Y3.228
X7.236Y-58.719
X8.157Y-28.21
X13.403Y35.904
X13.478Y-53.572
X14.435Y0.647
X18.981Y4.103
X20.286Y-56.848
X20.393Y35.904
X20.459Y14.469
X22.896Y40.743
X25.757Y41.546
X30.993Y62.766
X33.542Y-22.072
X38.511Y-5.08
X40.547Y-26.797
X41.164Y-73.18
X41.894Y-71.41
X41.894Y-74.95
X41.894Y76.094
X42.624Y77.864
X42.624Y74.324
X43.664Y-70.68
X43.664Y-75.68
X44.394Y78.594
X44.394Y73.594
X45.434Y-71.41
X45.434Y-74.95
X46.164Y-73.18
X46.164Y77.864
X46.164Y74.324
X46.894Y76.094
T2
X-40.577Y42.356
X-40.577Y39.816
X-40.577Y37.276
X-40.577Y34.736
T3
X-21.423Y66.209
X-21.423Y63.709
X-21.423Y61.209
X-6.923Y66.209
X-6.923Y61.209
X-0.361Y66.209
X-0.361Y63.709
X-0.361Y61.209
X14.139Y66.209
X14.139Y61.209
X24.947Y71.369
X24.947Y68.829
X24.947Y66.289
X24.947Y63.749
X24.947Y61.209
X24.947Y58.669
X24.947Y56.129
X40.187Y71.369
X40.187Y68.829
X40.187Y66.289
X40.187Y63.749
X40.187Y61.209
X40.187Y58.669
X40.187Y56.129
T4
X-91.766Y8.227
X-80.92Y-6.677
X-65.966Y-69.64
X-59.421Y-47.457
X-39.307Y14.86
X-38.431Y-38.911
X-38.431Y-12.0
X-33.625Y67.559
X-32.957Y17.4
X-32.081Y-36.371
X-32.081Y-9.46
X-31.085Y61.209
X-17.438Y14.86
X-16.391Y-11.96
X-16.391Y-39.317
X-11.088Y17.4
X-10.041Y-9.42
X-10.041Y-36.777
X6.243Y14.86
X8.175Y-12.0
X8.175Y-38.911
X12.593Y17.4
X14.525Y-9.46
X14.525Y-36.371
X31.286Y14.86
X32.161Y-12.0
X32.161Y-39.317
X37.636Y17.4
X38.511Y-9.46
X38.511Y-36.777
T6
X-45.822Y75.217
X-44.376Y-73.18
X43.664Y-73.18
X44.394Y76.094
T8
X-40.577Y12.32
X-39.701Y-41.451
X-39.701Y-14.54
X-36.165Y68.829
X-36.165Y58.669
X-30.417Y12.32
X-29.541Y-41.451
X-29.541Y-14.54
X-18.708Y12.32
X-17.661Y-14.5
X-17.661Y-41.857
X-8.548Y12.32
X-7.501Y-14.5
X-7.501Y-41.857
X4.973Y12.32
X6.905Y-14.54
X6.905Y-41.451
X15.133Y12.32
X17.065Y-14.54
X17.065Y-41.451
X30.016Y12.32
X30.891Y-14.54
X30.891Y-41.857
X40.176Y12.32
X41.051Y-14.54
X41.051Y-41.857
T9
X-36.165Y63.749
X-35.497Y12.32
X-34.621Y-41.451
X-34.621Y-14.54
X-13.628Y12.32
X-12.581Y-14.5
X-12.581Y-41.857
X10.053Y12.32
X11.985Y-14.54
X11.985Y-41.451
X35.096Y12.32
X35.971Y-14.54
X35.971Y-41.857
T5
X-13.523Y69.409G85X-14.323Y69.409
G05
X-13.523Y58.009G85X-14.323Y58.009
G05
X7.539Y69.409G85X6.739Y69.409
G05
X7.539Y58.009G85X6.739Y58.009
G05
T7
X-37.923Y75.88G85X-37.923Y73.88
G05
X-37.923Y75.88G85X-35.423Y75.88
G05
X-37.923Y74.88G85X-35.423Y74.88
G05
X-37.923Y73.88G85X-35.423Y73.88
G05
X-36.037Y-54.098G85X-36.037Y-56.098
G05
X-36.037Y1.147G85X-36.037Y-0.853
G05
X-35.871Y-26.373G85X-35.871Y-28.373
G05
X-35.423Y75.88G85X-35.423Y73.88
G05
X-36.037Y-54.098G85X-33.537Y-54.098
G05
X-36.037Y-55.098G85X-33.537Y-55.098
G05
X-36.037Y-56.098G85X-33.537Y-56.098
G05
X-36.037Y1.147G85X-33.537Y1.147
G05
X-36.037Y0.147G85X-33.537Y0.147
G05
X-36.037Y-0.853G85X-33.537Y-0.853
G05
X-35.871Y-26.373G85X-33.371Y-26.373
G05
X-35.871Y-27.373G85X-33.371Y-27.373
G05
X-35.871Y-28.373G85X-33.371Y-28.373
G05
X-33.537Y-54.098G85X-33.537Y-56.098
G05
X-33.537Y1.147G85X-33.537Y-0.853
G05
X-33.371Y-26.373G85X-33.371Y-28.373
G05
X-14.966Y1.147G85X-14.966Y-0.853
G05
X-14.584Y-26.373G85X-14.584Y-28.373
G05
X-14.966Y1.147G85X-12.466Y1.147
G05
X-14.966Y0.147G85X-12.466Y0.147
G05
X-14.966Y-0.853G85X-12.466Y-0.853
G05
X-13.588Y-54.598G85X-13.588Y-56.598
G05
X-14.584Y-26.373G85X-12.084Y-26.373
G05
X-14.584Y-27.373G85X-12.084Y-27.373
G05
X-14.584Y-28.373G85X-12.084Y-28.373
G05
X-12.466Y1.147G85X-12.466Y-0.853
G05
X-13.588Y-54.598G85X-11.088Y-54.598
G05
X-13.588Y-55.598G85X-11.088Y-55.598
G05
X-13.588Y-56.598G85X-11.088Y-56.598
G05
X-12.084Y-26.373G85X-12.084Y-28.373
G05
X-11.088Y-54.598G85X-11.088Y-56.598
G05
X9.357Y0.897G85X9.357Y-1.103
G05
X9.356Y0.897G85X11.856Y0.897
G05
X9.357Y-0.103G85X11.857Y-0.103
G05
X9.357Y-1.103G85X11.857Y-1.103
G05
X10.735Y-26.873G85X10.735Y-28.873
G05
X10.735Y-54.848G85X10.735Y-56.848
G05
X11.857Y0.897G85X11.857Y-1.103
G05
X10.735Y-26.873G85X13.235Y-26.873
G05
X10.735Y-27.873G85X13.235Y-27.873
G05
X10.735Y-28.873G85X13.235Y-28.873
G05
X10.735Y-54.848G85X13.235Y-54.848
G05
X10.735Y-55.848G85X13.235Y-55.848
G05
X10.735Y-56.848G85X13.235Y-56.848
G05
X13.235Y-26.873G85X13.235Y-28.873
G05
X13.235Y-54.848G85X13.235Y-56.848
G05
X34.633Y-55.098G85X34.633Y-57.098
G05
X34.633Y1.147G85X34.633Y-0.853
G05
X35.096Y-26.123G85X35.096Y-28.123
G05
X34.633Y-55.098G85X37.133Y-55.098
G05
X34.633Y-56.098G85X37.133Y-56.098
G05
X34.633Y-57.098G85X37.133Y-57.098
G05
X34.633Y1.147G85X37.133Y1.147
G05
X34.633Y0.147G85X37.133Y0.147
G05
X34.633Y-0.853G85X37.133Y-0.853
G05
X35.096Y-26.123G85X37.596Y-26.123
G05
X35.096Y-27.123G85X37.596Y-27.123
G05
X35.096Y-28.123G85X37.596Y-28.123
G05
X37.133Y-55.098G85X37.133Y-57.098
G05
X37.133Y1.147G85X37.133Y-0.853
G05
X37.596Y-26.123G85X37.596Y-28.123
G05
M30
